# xmcd
#
# Track frame offsets:
#	150
#	7148
#	18240
#	39501
#	51389
#	63904
#	78795
#	87965
#	99085
#	115583
#	131616
#	145422
#	159059
#	172332
#
# Disc length: 2490 seconds
# Revision: 0
# Processed by: cddbd v1.5.2PL0 Copyright (c) Steve Scherf et al.
# Submitted via: dBpowerAMP V12.0
#
DISCID=aa09b80e
DTITLE=Hot Lix - 1st Mix (Just Gittin Started)
DYEAR=2006
DGENRE=Bluegrass
TTITLE0=Foggy Mountain Breakdown
TTITLE1=Rise and Shine
TTITLE2=Mother's Grave
TTITLE3=Blue Moon of Kentucky
TTITLE4=Pretty Little Miss
TTITLE5=Lonesome Whistle Blues
TTITLE6=Log Down the Hill
TTITLE7=Corn Bread and Milk
TTITLE8=Wings of Gold
TTITLE9=Pretty Little Indian Maiden
TTITLE10=Union Mare and Confederate Grey
TTITLE11=Put the Ring on her Hand
TTITLE12=Stray Dogs and Alley Cats
TTITLE13=Rawhide
EXTD=
EXTT0=
EXTT1=
EXTT2=
EXTT3=
EXTT4=
EXTT5=
EXTT6=
EXTT7=
EXTT8=
EXTT9=
EXTT10=
EXTT11=
EXTT12=
EXTT13=
PLAYORDER=
